<svg id="etZXnpVJCPv1" xmlns="http://www.w3.org/2000/svg" xmlns:xlink="http://www.w3.org/1999/xlink" viewBox="0 0 500 500" shape-rendering="geometricPrecision" text-rendering="geometricPrecision"><g><path d="M-253.198404,-41.384474C-233.529899,-164.335406,-127.656549,-258.24398,0,-258.24398c141.646721,0,256.474076,115.619768,256.474076,258.24398s-114.827355,258.24398-256.474076,258.24398c-127.488286,0-233.250761-93.661177-253.12018-216.373477" transform="matrix(.781333 0 0 0.775978 248.991 250)" fill="none" stroke="#000" stroke-width="15" stroke-linecap="round"/><path d="M-253.12018,41.870503c-.961393-5.937501-2.642844-41.870503,23.390751-20.412051c22.582646,18.613972,25.513867,49.223756,34.556405,77.376993c7.194743,22.400272,22.445607,44.442022,37.277687,44.383866" transform="matrix(.781333 0 0 0.775978 248.991 250)" fill="none" stroke="#000" stroke-width="15" stroke-linecap="round"/><path d="M-253.12018,41.870503c-.961393-5.937501-2.642844-41.870503,23.390751-20.412051c22.582646,18.613972,25.513867,49.223756,34.556405,77.376993c7.194743,22.400272,22.445607,44.442022,37.277687,44.383866" transform="matrix(.781333 0 0-.78 248.991 250)" fill="none" stroke="#000" stroke-width="15" stroke-linecap="round"/><path d="M222.700934,-128.180047C244.189876,-90.409433,256.474076,-46.64918,256.474076,0c0,45.600901-11.738313,88.441252-32.338451,125.624715" transform="matrix(.890752 0 0 0.884659 250 250)" fill="none" stroke="#000" stroke-width="15" stroke-linecap="round"/></g></svg>
