<svg id="eno43UvLfBP1" xmlns="http://www.w3.org/2000/svg" xmlns:xlink="http://www.w3.org/1999/xlink" viewBox="0 0 500 500" shape-rendering="geometricPrecision" text-rendering="geometricPrecision"><path d="M-212.374921,-61.038192c0,0-.000002,95.989291-23.346468,95.989291C-257.885074,34.951099,-256.474076,0,-256.474076,0" transform="matrix(.781333 0 0 0.775978 248.991325 250)" fill="none" stroke="#000" stroke-width="15" stroke-linecap="round"/><path d="M-212.374921,-61.038192c0,0-.000002,95.989291-23.346468,95.989291q-20.913509,0-20.913509-33.807807c0-142.62422,115.023585-258.243995,256.912368-258.243995s256.912367,115.619775,256.912367,258.243995-115.023584,258.243996-256.912367,258.243996" transform="matrix(0-.78-.775978 0 249.878495 250.216426)" fill="none" stroke="#000" stroke-width="15" stroke-linecap="round"/><path d="M121.505351,-227.48145c41.935908,22.757347,76.860017,56.928151,100.66971,98.381482" transform="matrix(.890752 0 0 0.884659 250 250)" fill="none" stroke="#000" stroke-width="15" stroke-linecap="round"/></svg>
