<svg id="eFNYjRArdc51" xmlns="http://www.w3.org/2000/svg" xmlns:xlink="http://www.w3.org/1999/xlink" viewBox="0 0 500 500" shape-rendering="geometricPrecision" text-rendering="geometricPrecision"><path d="M-256.474076,0c0-142.624212,114.827355-258.24398,256.474076-258.24398s256.474076,115.619768,256.474076,258.24398-114.827355,258.24398-256.474076,258.24398" transform="matrix(.781333 0 0 0.775978 250 250)" fill="none" stroke="#000" stroke-width="15" stroke-linecap="round"/><path d="M0,-258.24398c30.194023,0,25.446107,18.224701,14.751419,22.854616-14.75142,11.304199-56.180594,5.352595-92.512212,19.336571-43.825314,16.868286-52.271828,44.995617-46.31117,51.380947c9.799351,10.497513,62.572639-33.899165,82.642788-33.899165c25.883858,0,25.88386,27.22082,25.883861,27.220819" transform="matrix(-.781333 0 0-.775978 250.000001 249.999994)" fill="none" stroke="#000" stroke-width="15" stroke-linecap="round" stroke-linejoin="round"/></svg>
