<svg id="e3iRZG6pnyg1" xmlns="http://www.w3.org/2000/svg" xmlns:xlink="http://www.w3.org/1999/xlink" viewBox="0 0 500 500" shape-rendering="geometricPrecision" text-rendering="geometricPrecision"><path d="M-256.474076,0c0-142.624212,114.827355-258.24398,256.474076-258.24398s256.474076,115.619768,256.474076,258.24398-114.827355,258.24398-256.474076,258.24398" transform="matrix(.781333 0 0 0.775978 250 250)" fill="none" stroke="#000" stroke-width="15" stroke-linecap="round"/><path d="M-256.474076,0c0-74.01943,30.927892-140.765415,80.481568-187.85095C-130.063768,-231.492097,-68.134591,-258.24398,0,-258.24398c3.4645.010478,9.04883,1.165059,13.269203,7.438076c2.70123,4.015015.011689,15.195503-18.536172,20.598743-28.163487,8.204401-31.694902,3.318995-122.432302,24.224774-23.840555,5.492833-48.293235,18.13144-48.293235,18.13144" transform="matrix(-.781333 0 0-.775978 250 250)" fill="none" stroke="#000" stroke-width="15" stroke-linecap="round"/><path d="M-224.713054,-124.57673c23.431026-42.759332,58.549936-78.116158,101.019616-101.70343" transform="matrix(0 0.890752-.884659 0 250 250)" fill="none" stroke="#000" stroke-width="15" stroke-linecap="round"/></svg>
