<svg id="eP7hNWTfazY1" xmlns="http://www.w3.org/2000/svg" xmlns:xlink="http://www.w3.org/1999/xlink" viewBox="0 0 500 500" shape-rendering="geometricPrecision" text-rendering="geometricPrecision"><path d="M0,-258.24398c141.646721,0,256.474076,115.619768,256.474076,258.24398" transform="matrix(.781333 0 0 0.775978 250 250)" fill="none" stroke="#000" stroke-width="15" stroke-linecap="round"/><g transform="translate(.478201 0.001537)"><path d="M-225.656467,-123.246253c23.348185-43.393131,58.681702-79.293447,101.530486-103.200033" transform="matrix(.629857 0.629857-.625548 0.625548 250 250)" fill="none" stroke="#000" stroke-width="15" stroke-linecap="round"/><path d="M-225.656467,-123.246253c23.348185-43.393131,58.681702-79.293447,101.530486-103.200033" transform="matrix(.729661 0.510914-.50742 0.72467 250 250)" fill="none" stroke="#000" stroke-width="15" stroke-linecap="round"/><path d="M-225.656467,-123.246253c23.348185-43.393131,58.681702-79.293447,101.530486-103.200033" transform="matrix(.510914 0.729661-.72467 0.50742 250 250)" fill="none" stroke="#000" stroke-width="15" stroke-linecap="round"/></g><path d="M-300.149674,-27.102399c15.82665-131.50206,60.335907-140.235523,52.005752-96.67506-7.519292,39.320257-.000001,52.677758-.000001,52.677758C-218.972531,-149.103305,-141.646721,-258.24398,0,-258.24398" transform="matrix(.781333 0 0 0.775978 250 250)" fill="none" stroke="#000" stroke-width="15" stroke-linecap="round" stroke-linejoin="round"/></svg>
