<svg id="ePSytW8FaRI1" xmlns="http://www.w3.org/2000/svg" xmlns:xlink="http://www.w3.org/1999/xlink" viewBox="0 0 500 500" shape-rendering="geometricPrecision" text-rendering="geometricPrecision"><path d="M0,-258.24398c141.646721,0,256.474076,115.619768,256.474076,258.24398s-114.827355,258.24398-256.474076,258.24398c-127.048352,0-232.520575-93.015883-252.911419-215.104157" transform="matrix(.781333 0 0 0.775978 250 250)" fill="none" stroke="#000" stroke-width="15" stroke-linecap="round"/><path d="M-300.149674,-27.102399c15.82665-131.50206,60.335907-140.235523,52.005752-96.67506-7.519292,39.320257-.000001,52.677758-.000001,52.677758C-218.972531,-149.103305,-141.646721,-258.24398,0,-258.24398" transform="matrix(.781333 0 0 0.775978 250 250)" fill="none" stroke="#000" stroke-width="15" stroke-linecap="round" stroke-linejoin="round"/><path d="M0,-258.24398c30.194023,0,25.446107,18.224701,14.751419,22.854616-14.078835,6.094971-36.44955,7.926312-87.11225,22.310302" transform="matrix(-.135677-.769463 0.764189-.134747 250 250)" fill="none" stroke="#000" stroke-width="15" stroke-linecap="round" stroke-linejoin="round"/></svg>
