<svg id="espGdm9gv7K1" xmlns="http://www.w3.org/2000/svg" xmlns:xlink="http://www.w3.org/1999/xlink" viewBox="0 0 500 500" shape-rendering="geometricPrecision" text-rendering="geometricPrecision"><path d="M-256.474076,0c0-72.4186,29.604593-137.87496,77.292712-184.768508" transform="matrix(.82999 0 0 0.824312 250 250)" fill="none" stroke="#000" stroke-width="15" stroke-linecap="round"/><path d="M148.722874,-210.417773C213.944438,-163.596801,256.474076,-86.799339,256.474076,0" transform="matrix(.82999 0 0 0.824312 250 250)" fill="none" stroke="#000" stroke-width="15" stroke-linecap="round"/><path d="M-255.414423,-3.065451c.000001-60.904127,13.163211-103.037594,37.488106-133.386857q47.29484-59.008006,22.778964,57.092274" transform="matrix(.589289 0.589289-.585259 0.585259 250 250)" fill="none" stroke="#000" stroke-width="15" stroke-linecap="round"/><path d="M-256.474076,0c.990579-45.286653,9.440955-76.601025,20.847157-102.729051" transform="matrix(-.586899 0.586899 0.585259 0.585259 250 250)" fill="none" stroke="#000" stroke-width="15" stroke-linecap="round"/><path d="M164.973115,54.429657q-25.543788,13.283566-41.378413,68.251887q0-62.330197-48.946898-24.994161" transform="matrix(.707107 0.707107-.707107 0.707107 250.000004-103.553381)" fill="none" stroke="#000" stroke-width="12" stroke-linecap="round" stroke-linejoin="round"/></svg>
