<svg id="eIefZUc9bB51" xmlns="http://www.w3.org/2000/svg" xmlns:xlink="http://www.w3.org/1999/xlink" viewBox="0 0 500 500" shape-rendering="geometricPrecision" text-rendering="geometricPrecision"><g transform="matrix(.97437 0.224951-.224951 0.97437 64.776076-49.587501)"><path d="M-261.878124,-133.031825c-20.509963,33.392453-31.145232,88.094176-25.091102,113.907138c7.025993,29.956688,30.49515,45.0372,30.49515,19.124687" transform="matrix(.781333 0 0 0.775978 250 250)" fill="none" stroke="#000" stroke-width="15" stroke-linecap="round"/><path d="M-261.878124,-133.031825c-20.509963,33.392453-31.145232,88.094176-25.091102,113.907138c7.025993,29.956688,30.49515,45.0372,30.49515,19.124687" transform="matrix(.6755-.39-.387989-.672017 250 250)" fill="none" stroke="#000" stroke-width="15" stroke-linecap="round"/><path d="M-256.474076,0c0-142.624212,114.827355-258.24398,256.474076-258.24398" transform="matrix(.781333 0 0 0.775978 250 250)" fill="none" stroke="#000" stroke-width="15" stroke-linecap="round"/><path d="M-256.474076,0c0-142.624212,114.827355-258.24398,256.474076-258.24398" transform="matrix(0 0.781333-.775978 0 250 250)" fill="none" stroke="#000" stroke-width="15" stroke-linecap="round"/><path d="M-256.474076,0c0-142.624212,114.827355-258.24398,256.474076-258.24398" transform="matrix(-.781333 0 0-.775978 250 250)" fill="none" stroke="#000" stroke-width="15" stroke-linecap="round"/><path d="M-256.474076,0c0-142.624212,114.827355-258.24398,256.474076-258.24398" transform="matrix(-.390667-.676654 0.672017-.387989 250.337803 249.662196)" fill="none" stroke="#000" stroke-width="15" stroke-linecap="round"/></g></svg>
