<svg id="efuLVmJZwEp1" xmlns="http://www.w3.org/2000/svg" xmlns:xlink="http://www.w3.org/1999/xlink" viewBox="0 0 500 500" shape-rendering="geometricPrecision" text-rendering="geometricPrecision"><path d="M-255.414423,-3.065451c.000001-60.904127,13.163211-103.037594,37.488106-133.386857q47.29484-59.008006,22.778964,57.092274" transform="matrix(-.638406 0.535686-.532023-.63404 250 250)" fill="none" stroke="#000" stroke-width="15" stroke-linecap="round"/><path d="M-256.474076,0c.990579-45.286653,9.440955-76.601025,20.847157-102.729051" transform="matrix(-.533514-.635817-.63404 0.532023 250 250)" fill="none" stroke="#000" stroke-width="15" stroke-linecap="round"/><path d="M164.973115,54.429657q-25.543788,13.283566-41.378413,68.251887q0-62.330197-48.946898-24.994161" transform="matrix(-.766044 0.642788-.642788-.766044 602.208011 280.814207)" fill="none" stroke="#000" stroke-width="12" stroke-linecap="round" stroke-linejoin="round"/><path d="M199.592427,150.565328C153.956697,210.966009,81.536787,250,0,250c-124.162558,0-227.184374-90.514275-246.680272-209.15765" transform="matrix(.852032 0 0 0.852032 250 250)" fill="none" stroke="#000" stroke-width="15" stroke-linecap="round" stroke-linejoin="round"/><path d="M-246.279191,-43.211707C-225.80966,-160.68869,-123.334717,-250,0,-250c82.505555,0,155.676304,39.967056,201.207698,101.596618" transform="matrix(.852032 0 0 0.852032 250 250)" fill="none" stroke="#000" stroke-width="15" stroke-linecap="round" stroke-linejoin="round"/></svg>
